<svg width="24" height="24" viewBox="0 0 24 24" fill="none" xmlns="http://www.w3.org/2000/svg">
    <g clip-path="url(#clip0_3674_593)">
        <path d="M19.6699 5.60062C19.6638 5.58973 19.6536 5.5812 19.6412 5.57656C18.2116 4.97529 16.703 4.54654 15.153 4.30104C15.1389 4.29864 15.1244 4.30037 15.1114 4.30599C15.0985 4.3116 15.0878 4.32082 15.0809 4.33232C14.8755 4.67411 14.689 5.02518 14.5221 5.3842C12.8514 5.15171 11.1519 5.15171 9.48117 5.3842C9.31323 5.02427 9.12376 4.67311 8.91361 4.33232C8.9064 4.32107 8.89566 4.31207 8.88279 4.30649C8.86992 4.30091 8.85552 4.29901 8.84146 4.30104C7.29135 4.54603 5.78259 4.97481 4.35316 5.57659C4.34092 5.58135 4.3306 5.58947 4.32361 5.59983C1.46502 9.51301 0.681945 13.33 1.0661 17.0997C1.06718 17.1089 1.07027 17.1179 1.0752 17.126C1.08013 17.1341 1.08679 17.1412 1.09478 17.1469C2.75931 18.2767 4.62111 19.139 6.60072 19.6972C6.61466 19.701 6.62955 19.7008 6.64338 19.6967C6.65721 19.6925 6.66932 19.6846 6.67808 19.674C7.10326 19.1436 7.48 18.5821 7.80447 17.995C7.80893 17.987 7.81147 17.9781 7.81194 17.9691C7.8124 17.9601 7.81078 17.9511 7.80717 17.9427C7.80356 17.9343 7.79804 17.9266 7.79099 17.9203C7.78394 17.914 7.77551 17.9092 7.76626 17.906C7.17217 17.6977 6.59702 17.4465 6.04621 17.1548C6.0362 17.1495 6.0278 17.1419 6.02174 17.1328C6.01568 17.1237 6.01215 17.1134 6.01147 17.1028C6.01078 17.0922 6.01296 17.0816 6.01781 17.0719C6.02266 17.0623 6.03003 17.0538 6.03927 17.0474C6.15517 16.968 6.26907 16.8862 6.38086 16.8021C6.39066 16.7947 6.40253 16.7899 6.41512 16.7884C6.4277 16.7868 6.44052 16.7885 6.45211 16.7933C10.0607 18.3029 13.9675 18.3029 17.5334 16.7933C17.545 16.7882 17.5579 16.7863 17.5707 16.7877C17.5835 16.7891 17.5955 16.7938 17.6055 16.8013C17.7174 16.8859 17.8316 16.968 17.948 17.0474C17.9572 17.0538 17.9647 17.0621 17.9696 17.0718C17.9745 17.0814 17.9768 17.092 17.9762 17.1026C17.9756 17.1132 17.9722 17.1235 17.9662 17.1327C17.9602 17.1418 17.9518 17.1494 17.9419 17.1548C17.3923 17.4489 16.8167 17.7 16.221 17.9053C16.2118 17.9085 16.2034 17.9135 16.1963 17.9199C16.1893 17.9263 16.1839 17.934 16.1804 17.9424C16.1768 17.9509 16.1753 17.96 16.1758 17.969C16.1764 17.9781 16.179 17.9869 16.1835 17.995C16.5134 18.5788 16.8896 19.1397 17.309 19.673C17.3175 19.684 17.3296 19.6922 17.3435 19.6965C17.3574 19.7008 17.3724 19.701 17.3864 19.6971C19.3696 19.1408 21.2346 18.2784 22.9012 17.1469C22.9093 17.1415 22.9161 17.1346 22.921 17.1265C22.926 17.1185 22.929 17.1096 22.9299 17.1005C23.3898 12.7423 22.16 8.95662 19.6699 5.60062V5.60062ZM8.34338 14.8043C7.25693 14.8043 6.36173 13.8904 6.36173 12.768C6.36173 11.6456 7.23957 10.7316 8.34338 10.7316C9.45582 10.7316 10.3424 11.6535 10.325 12.7679C10.325 13.8904 9.44712 14.8043 8.34338 14.8043V14.8043ZM15.6701 14.8043C14.5837 14.8043 13.6885 13.8904 13.6885 12.768C13.6885 11.6456 14.5664 10.7316 15.6701 10.7316C16.7826 10.7316 17.6691 11.6535 17.6518 12.7679C17.6518 13.8904 16.7826 14.8043 15.6701 14.8043Z" fill="white" fill-opacity="0.4" class-name='bg-primary'/>
    </g>
    <defs>
    <clipPath id="clip0_3674_593">
    <rect width="24" height="24" fill="white"/>
    </clipPath>
    </defs>
</svg>
