<svg width="24" height="24" viewBox="0 0 24 24" fill="none" xmlns="http://www.w3.org/2000/svg">
<g clip-path="url(#clip0_3674_598)">
<g clip-path="url(#clip1_3674_598)">
<path d="M11.1516 21.3077C10.6676 21.3093 10.2026 21.1337 9.8586 20.8194C9.51457 20.5051 9.31951 20.0778 9.31614 19.631L9.30887 18.431C5.7016 19.1552 4.94069 17.0187 4.94069 17.0187C4.35068 15.6358 3.50068 15.2682 3.50068 15.2682C2.32433 14.5247 3.58978 14.5398 3.58978 14.5398C4.89068 14.6237 5.57615 15.7734 5.57615 15.7734C6.7325 17.6028 8.60979 17.0741 9.34887 16.7687C9.46524 15.9949 9.80161 15.4671 10.1725 15.1675C7.29251 14.8654 4.26523 13.8383 4.26523 9.25312C4.26523 7.94655 4.7716 6.87913 5.60159 6.04082C5.46705 5.73872 5.02341 4.52194 5.72705 2.87382C5.72705 2.87382 6.81614 2.55242 9.29342 4.10066C10.3513 3.83499 11.4426 3.69955 12.5389 3.69787C13.6398 3.70208 14.7498 3.83466 15.7861 4.10066C18.2616 2.55244 19.3489 2.87382 19.3489 2.87382C20.0543 4.52277 19.6107 5.73956 19.4761 6.04082C20.3071 6.8783 20.8107 7.94655 20.8107 9.25314C20.8107 13.8501 17.777 14.8621 14.8907 15.1583C15.3552 15.5301 15.7698 16.2576 15.7698 17.3745C15.7698 18.9765 15.7634 19.6302 15.7634 19.6302C15.7601 20.0767 15.5653 20.5039 15.2217 20.8183C14.878 21.1326 14.4136 21.3086 13.9298 21.3077H11.1516Z" fill="white" fill-opacity="0.4"/>
</g>
</g>
<defs>
<clipPath id="clip0_3674_598">
<rect width="24" height="24" fill="white"/>
</clipPath>
<clipPath id="clip1_3674_598">
<rect width="24" height="22.1538" fill="white" transform="translate(0 0.923065)"/>
</clipPath>
</defs>
</svg>
