<svg width="24" height="24" viewBox="0 0 24 24" fill="none" xmlns="http://www.w3.org/2000/svg">
<g clip-path="url(#clip0_3674_608)">
<g clip-path="url(#clip1_3674_608)">
<g clip-path="url(#clip2_3674_608)">
<g clip-path="url(#clip3_3674_608)">
<path d="M7.99555 6.20458V20.7059C7.99555 21.0888 7.79498 21.448 7.33898 21.448C7.18521 21.4473 7.03375 21.4135 6.89669 21.3491L0.668696 18.4683C0.293267 18.295 -0.000732445 17.8504 -0.000732422 17.4793V3.3855C-0.000732422 3.07614 0.159553 2.7921 0.521267 2.7921C0.735553 2.7921 0.923267 2.891 1.11098 2.97724L7.9544 6.14207C7.97256 6.15968 7.98631 6.18075 7.99469 6.20379L7.99555 6.20458ZM8.85269 7.45311L16.0047 18.159L8.85269 14.8707V7.45311V7.45311ZM24.0001 7.67544V20.7059C24.0001 21.1141 23.7455 21.3982 23.3041 21.3982C23.0761 21.3982 22.8618 21.3365 22.675 21.2376L16.7684 18.5182L24.0001 7.67544ZM23.9598 6.19271C23.9598 6.24256 17.0358 16.6145 16.5001 17.4057L11.2767 9.56801L15.6164 3.05319C15.6905 2.94523 15.7935 2.85667 15.9154 2.79598C16.0372 2.7353 16.1739 2.70454 16.3124 2.70664C16.4333 2.70664 16.5533 2.73117 16.6604 2.78102L23.9058 6.11913C23.9324 6.13179 23.9598 6.15632 23.9598 6.1935V6.19271Z" fill="white" fill-opacity="0.4"/>
</g>
</g>
</g>
</g>
<defs>
<clipPath id="clip0_3674_608">
<rect width="24" height="24" fill="white"/>
</clipPath>
<clipPath id="clip1_3674_608">
<rect width="24" height="22.1538" fill="white" transform="translate(0 0.923065)"/>
</clipPath>
<clipPath id="clip2_3674_608">
<rect width="24" height="22.1538" fill="white" transform="translate(0 1)"/>
</clipPath>
<clipPath id="clip3_3674_608">
<rect width="24" height="22.1538" fill="white" transform="translate(0 1)"/>
</clipPath>
</defs>
</svg>
