<svg width="30" height="30" viewBox="0 0 30 30" fill="none" xmlns="http://www.w3.org/2000/svg">
<g clip-path="url(#clip0_3786_1669)">
<path d="M30 15C30 6.71573 23.2843 0 15 0C6.71573 0 0 6.71573 0 15C0 23.2843 6.71573 30 15 30C23.2843 30 30 23.2843 30 15Z" fill="#F6F6F6"/>
<g filter="url(#filter0_i_3786_1669)">
<path d="M25 15C25 9.47715 20.5228 5 15 5C9.47715 5 5 9.47715 5 15C5 20.5228 9.47715 25 15 25C20.5228 25 25 20.5228 25 15Z" stroke="#F4F6FA" stroke-width="0.8"/>
<path d="M25 15C25 9.47715 20.5228 5 15 5C9.47715 5 5 9.47715 5 15C5 20.5228 9.47715 25 15 25C20.5228 25 25 20.5228 25 15Z" fill="white"/>
</g>
<path d="M25 15C25 9.47715 20.5228 5 15 5C9.47715 5 5 9.47715 5 15C5 20.5228 9.47715 25 15 25C20.5228 25 25 20.5228 25 15Z" stroke="#F4F4F4" stroke-width="0.8"/>
<path d="M25 15C25 9.47715 20.5228 5 15 5C9.47715 5 5 9.47715 5 15C5 20.5228 9.47715 25 15 25C20.5228 25 25 20.5228 25 15Z" fill="#D9D9D9" stroke="#F4F4F4" stroke-width="0.8"/>
<path d="M24.6032 12.2018C23.3928 8.04084 19.5515 5 15 5C10.4484 5 6.60709 8.04084 5.39673 12.2018H24.6032Z" fill="white"/>
<path d="M23.9808 19.4035H6.01929C7.64773 22.7184 11.0574 25 15 25C18.9427 25 22.3524 22.7184 23.9808 19.4035Z" fill="#DD2726"/>
<path d="M24.6032 12.2018C24.8615 13.0897 25 14.0287 25 15C25 16.5803 24.6335 18.0749 23.9807 19.4035H6.01925C5.36655 18.0749 5 16.5803 5 15C5 14.0287 5.13848 13.0897 5.39678 12.2018H24.6032Z" fill="#22297E"/>
</g>
<defs>
<filter id="filter0_i_3786_1669" x="4.59998" y="4.6" width="20.8" height="21.8" filterUnits="userSpaceOnUse" color-interpolation-filters="sRGB">
<feFlood flood-opacity="0" result="BackgroundImageFix"/>
<feBlend mode="normal" in="SourceGraphic" in2="BackgroundImageFix" result="shape"/>
<feColorMatrix in="SourceAlpha" type="matrix" values="0 0 0 0 0 0 0 0 0 0 0 0 0 0 0 0 0 0 127 0" result="hardAlpha"/>
<feOffset dy="1"/>
<feGaussianBlur stdDeviation="2"/>
<feComposite in2="hardAlpha" operator="arithmetic" k2="-1" k3="1"/>
<feColorMatrix type="matrix" values="0 0 0 0 0 0 0 0 0 0 0 0 0 0 0 0 0 0 0.05 0"/>
<feBlend mode="normal" in2="shape" result="effect1_innerShadow_3786_1669"/>
</filter>
<clipPath id="clip0_3786_1669">
<rect width="30" height="30" fill="white"/>
</clipPath>
</defs>
</svg>
