<svg width="30" height="30" viewBox="0 0 30 30" fill="none" xmlns="http://www.w3.org/2000/svg">
<g clip-path="url(#clip0_3686_6775)">
<path d="M30 15C30 6.71573 23.2843 0 15 0C6.71573 0 0 6.71573 0 15C0 23.2843 6.71573 30 15 30C23.2843 30 30 23.2843 30 15Z" fill="#F6F6F6"/>
<path d="M27 15C27 8.37258 21.6274 3 15 3C8.37258 3 3 8.37258 3 15C3 21.6274 8.37258 27 15 27C21.6274 27 27 21.6274 27 15Z" fill="#F4F6FA"/>
<path d="M25 15C25 9.47715 20.5228 5 15 5C9.47715 5 5 9.47715 5 15C5 20.5228 9.47715 25 15 25C20.5228 25 25 20.5228 25 15Z" stroke="#EAEAEA" stroke-width="0.8"/>
<path d="M6.66663 11.6667L8.88885 8.33336L9.4444 8.70373L7.22218 12.0371L6.66663 11.6667ZM7.49996 12.2223L9.72218 8.88892L10.2777 9.25929L8.05551 12.5926L7.49996 12.2223ZM8.33329 12.7778L10.5555 9.44447L11.1111 9.81484L8.88885 13.1482L8.33329 12.7778Z" fill="black"/>
<path d="M18.8888 19.8149L21.111 16.4815L21.6666 16.8519L19.4443 20.1852L18.8888 19.8149ZM19.7221 20.3704L21.9443 17.0371L22.4999 17.4075L20.2777 20.7408L19.7221 20.3704ZM20.5555 20.926L22.7777 17.5927L23.3332 17.963L21.111 21.2964L20.5555 20.926Z" fill="black"/>
<path fill-rule="evenodd" clip-rule="evenodd" d="M22.4074 19.9537L19.6296 18.1018L19.8148 17.8241L22.5926 19.6759L22.4074 19.9537Z" fill="#F4F6FA"/>
<path d="M11.6666 12.5926C12.256 11.7085 13.1724 11.0948 14.2143 10.8864C15.2562 10.6781 16.3381 10.8921 17.2222 11.4815C18.1062 12.0709 18.72 12.9873 18.9283 14.0291C19.1367 15.071 18.9227 16.153 18.3333 17.037L11.6666 12.5926Z" fill="#CD2E3A"/>
<path d="M11.6667 12.5926C11.0773 13.4766 10.8633 14.5586 11.0716 15.6005C11.28 16.6424 11.8937 17.5588 12.7778 18.1481C13.6618 18.7375 14.7438 18.9516 15.7857 18.7432C16.8276 18.5348 17.744 17.9211 18.3333 17.037C18.628 16.595 18.7351 16.054 18.6309 15.5331C18.5267 15.0121 18.2198 14.5539 17.7778 14.2593C17.3358 13.9646 16.7948 13.8575 16.2738 13.9617C15.7529 14.0659 15.2947 14.3728 15 14.8148L11.6667 12.5926Z" fill="#0047A0"/>
<path d="M15 14.8148C15.6136 13.8943 15.3649 12.6507 14.4444 12.037C13.524 11.4234 12.2803 11.6721 11.6667 12.5926C11.053 13.513 11.3017 14.7567 12.2222 15.3703C13.1427 15.984 14.3863 15.7353 15 14.8148Z" fill="#CD2E3A"/>
<path d="M8.88892 21.2963L6.66669 17.9629L7.22225 17.5926L9.44447 20.9259L8.88892 21.2963ZM9.72225 20.7407L7.50003 17.4074L8.05558 17.037L10.2778 20.3703L9.72225 20.7407ZM10.5556 20.1852L8.33336 16.8518L8.88892 16.4815L11.1111 19.8148L10.5556 20.1852Z" fill="black"/>
<path d="M21.1111 13.1481L18.8889 9.8148L19.4444 9.44443L21.6666 12.7778L21.1111 13.1481ZM21.9444 12.5926L19.7222 9.25924L20.2778 8.88887L22.5 12.2222L21.9444 12.5926ZM22.7778 12.037L20.5555 8.70369L21.1111 8.33332L23.3333 11.6667L22.7778 12.037Z" fill="black"/>
<path fill-rule="evenodd" clip-rule="evenodd" d="M9.39815 18.7501L8.56482 19.3056L8.37963 19.0279L9.21297 18.4723L9.39815 18.7501ZM20.787 11.1575L19.8148 11.8056L19.6296 11.5279L20.6019 10.8797L20.787 11.1575ZM22.4537 10.0464L21.6204 10.6019L21.4352 10.3242L22.2685 9.76861L22.4537 10.0464Z" fill="#F4F6FA"/>
</g>
<defs>
<clipPath id="clip0_3686_6775">
<rect width="30" height="30" fill="white"/>
</clipPath>
</defs>
</svg>
