<svg width="30" height="30" viewBox="0 0 30 30" fill="none" xmlns="http://www.w3.org/2000/svg">
<g clip-path="url(#clip0_3786_1832)">
<path d="M30 15C30 6.71573 23.2843 0 15 0C6.71573 0 0 6.71573 0 15C0 23.2843 6.71573 30 15 30C23.2843 30 30 23.2843 30 15Z" fill="#F6F6F6"/>
<path d="M25 15C25 9.47715 20.5228 5 15 5C9.47715 5 5 9.47715 5 15C5 20.5228 9.47715 25 15 25C20.5228 25 25 20.5228 25 15Z" fill="#D9D9D9" stroke="white" stroke-width="0.666667"/>
<path fill-rule="evenodd" clip-rule="evenodd" d="M25 15L5 15C5 15 5 15 5 15C5 20.5229 9.47715 25 15 25C20.5228 25 25 20.5229 25 15Z" fill="#FFD500"/>
<path fill-rule="evenodd" clip-rule="evenodd" d="M25 15C25 9.47715 20.5228 5 15 5C9.47715 5 5 9.47715 5 15L25 15Z" fill="#005BBB"/>
</g>
<defs>
<clipPath id="clip0_3786_1832">
<rect width="30" height="30" fill="white"/>
</clipPath>
</defs>
</svg>
