<svg width="30" height="30" viewBox="0 0 30 30" fill="none" xmlns="http://www.w3.org/2000/svg">
<rect width="30" height="30" rx="15" fill="black" fill-opacity="0.04"/>
<g clip-path="url(#clip0_3674_444)">
<path d="M15 18C19.1421 18 22.5 16.6569 22.5 15C22.5 13.3431 19.1421 12 15 12C10.8579 12 7.5 13.3431 7.5 15C7.5 16.6569 10.8579 18 15 18Z" stroke="#00F99E" stroke-width="1.2" stroke-linecap="round" stroke-linejoin="round"/>
<path d="M18 15C18 19.1421 16.6569 22.5 15 22.5C13.3431 22.5 12 19.1421 12 15C12 10.8579 13.3431 7.5 15 7.5C16.6569 7.5 18 10.8579 18 15Z" stroke="#00F99E" stroke-width="1.2" stroke-linecap="round" stroke-linejoin="round"/>
<path d="M15 22.5C19.1421 22.5 22.5 19.1421 22.5 15C22.5 10.8579 19.1421 7.5 15 7.5C10.8579 7.5 7.5 10.8579 7.5 15C7.5 19.1421 10.8579 22.5 15 22.5Z" stroke="#00F99E" stroke-width="1.2" stroke-linejoin="round"/>
</g>
<defs>
<clipPath id="clip0_3674_444">
<rect width="18" height="18" fill="white" transform="translate(6 6)"/>
</clipPath>
</defs>
</svg>
